<?xml version='1.0' encoding='utf-8'?><!-- Generator: DarwingMaster 1.1.7, SVG Export Plug-In . SVG Version: 6.00 Build 0)--><svg version="1.1" x="0" y="0" viewBox="0 0 13 13" xmlns="http://www.w3.org/2000/svg" xmlns:xlink="http://www.w3.org/1999/xlink">
  <style type="text/css">.st1{stroke:none;stroke-width:1;stroke-linecap:butt;stroke-linejoin:miter;fill:#e57200;fill-opacity:1;fill-rule:nonzero;}
.st2{stroke:none;stroke-width:1;stroke-linecap:butt;stroke-linejoin:miter;fill:#ff7f00;fill-opacity:1;fill-rule:nonzero;}
.st3{stroke:none;stroke-width:1;stroke-linecap:butt;stroke-linejoin:miter;fill:url(#921328E9-78B2-2E34-93B3-DB9B8AAD00BF);fill-rule:evenOdd;}
.st4{stroke:none;stroke-width:1;stroke-linecap:butt;stroke-linejoin:miter;fill:url(#E996FB09-CBB6-CA46-491A-04B7E4CE2D55);fill-rule:evenOdd;}
.st5{stroke:none;stroke-width:1;stroke-linecap:butt;stroke-linejoin:miter;fill:url(#8BF75B05-F727-5FD0-F159-7C63F6B72BE3);fill-rule:evenOdd;}</style>
  <defs>
    <linearGradient x1="9.393578913618343" y1="8.209696821029336" x2="6.889064129617615" y2="12.384050713937466" gradientUnits="userSpaceOnUse" id="921328E9-78B2-2E34-93B3-DB9B8AAD00BF">
      <stop offset="0%" style="stop-color:#7777e9;stop-opacity:1;"/>
      <stop offset="100%" style="stop-color:#01009a;stop-opacity:1;"/>
    </linearGradient>
    <linearGradient x1="9.382514228803183" y1="8.104389636967563" x2="11.875964327988763" y2="12.384050713937466" gradientUnits="userSpaceOnUse" id="E996FB09-CBB6-CA46-491A-04B7E4CE2D55">
      <stop offset="0%" style="stop-color:#b83535;stop-opacity:1;"/>
      <stop offset="100%" style="stop-color:#fd5b5a;stop-opacity:1;"/>
    </linearGradient>
    <linearGradient x1="11.875964327988763" y1="12.384050713937466" x2="7.703275325005708" y2="11.866277233540426" gradientUnits="userSpaceOnUse" id="8BF75B05-F727-5FD0-F159-7C63F6B72BE3">
      <stop offset="0%" style="stop-color:#01b202;stop-opacity:1;"/>
      <stop offset="100%" style="stop-color:#0fe90f;stop-opacity:1;"/>
    </linearGradient>
  </defs>
  <path class="st1" id="复合路径1" d="M 8.994510446738303 2.9589387426614993 C 8.994510446738303 2.9589387426614993 9.38596890498408 1.7372966426735912 9.38596890498408 1.7372966426735912 C 9.78648150444098 1.7063222785912529 10.100561293680745 1.4152950620218736 10.100561293680745 1.060276127316427 C 10.100561293680745 0.6846295841901876 9.749047576072284 0.38015817555102643 9.315361820581337 0.38015817555102643 C 8.881676065090398 0.38015817555102643 8.530162347481934 0.6846295841901876 8.530162347481934 1.060276127316427 C 8.530162347481934 1.3077415254636235 8.68332189586849 1.523573530505453 8.911349300992411 1.6426600749667013 C 8.911349300992411 1.6426600749667013 8.527118938671485 2.8417633823670343 8.527118938671485 2.8417633823670343 C 7.428676613755187 2.5998997309155785 6.501349949207189 2.618352543560376 6.501349949207189 2.618352543560376 C 6.501349949207189 2.618352543560376 6.329549521856559 2.6849144748862552 6.329549521856559 2.6849144748862552 C 6.329549521856559 2.6849144748862552 6.329549521856559 11.968788128093168 6.329549521856559 11.968788128093168 C 6.329549521856559 11.968788128093168 6.501349949207189 12.018413013527216 6.501349949207189 12.018413013527216 C 7.53717413784819 12.018413013527216 12.069038112288077 9.307628933104146 12.080146554446264 6.398872534163301 C 12.080146554446264 4.314759151738011 10.480606968887285 3.378872036135257 8.994510446738298 2.9589387426614993 C 8.994510446738298 2.9589387426614993 8.994510446738303 2.9589387426614993 8.994510446738303 2.9589387426614993  Z M 7.903524473407654 8.9388362918174 C 7.019642469628995 7.715876133783439 7.393296986333569 4.869266171714179 9.702407336051946 4.462381652896391 C 10.335436368628205 4.3745330841266945 11.11066867787334 4.73482425101637 11.33900042387831 5.535214999484468 C 11.915878563901538 7.233269180219675 8.522705995896304 9.610979992404145 7.903524473407654 8.9388362918174  Z M 9.289492845692408 6.31906411947455 C 9.161748070837762 6.31906411947455 9.042560573298012 6.346726362509413 8.931930353073156 6.40205084857913 C 8.8213001328483 6.457375334648844 8.734048829022226 6.53294998807141 8.6701764415949 6.628774808846785 C 8.606304054167573 6.724599629622174 8.574367860453915 6.827836526079599 8.574367860453915 6.938485498219017 C 8.574367860453915 7.04914232143027 8.606308281478967 7.152385560838453 8.670189123529072 7.248215216443598 C 8.734069965579156 7.344044872048724 8.821331685780137 7.419620506173524 8.931974284131977 7.474942118817973 C 9.042616882483832 7.530263731462414 9.161815099426569 7.557918650844127 9.28956893496019 7.557906876963125 C 9.417313710055915 7.557895105169742 9.536497810051939 7.530221878669125 9.64712123494824 7.474887197461327 C 9.757744659844546 7.4195525162535265 9.844986680749969 7.34396982201443 9.908847297664504 7.248139114744076 C 9.972707914579043 7.15230840747372 10.004631427017017 7.049068567664483 10.004617834978424 6.938419595316359 C 10.0045968262058 6.767383973200883 9.934769440516966 6.621399154789694 9.795135677911922 6.500465140082796 C 9.655501915306884 6.379531125375896 9.486954305916512 6.319064118506359 9.289492849740844 6.31906411947418 C 9.289492849740844 6.31906411947418 9.289492845692408 6.31906411947455 9.289492845692408 6.31906411947455  Z M 9.503292314627418 6.890574088244849 C 9.464158042466204 6.890574088865515 9.428760760638498 6.880612005556192 9.397100469144315 6.860687838316894 C 9.365440177650132 6.840763671077578 9.343563454253845 6.814682597337705 9.331470298955436 6.782444617097278 C 9.319377143657036 6.7502066368568725 9.319377143654796 6.717968656615803 9.331470298948709 6.68573067637412 C 9.343563454242627 6.653492696132424 9.365440177635302 6.627411622390278 9.39710046912671 6.607487455147671 C 9.428760760618129 6.587563287905057 9.464158042444438 6.577601204592059 9.503292314605657 6.5776012052086275 C 9.553181398155242 6.577601205999859 9.595764394410569 6.592879145524292 9.631041303371635 6.623435023781907 C 9.666318212332701 6.653990902039532 9.683956666811737 6.690875109690939 9.683956666808733 6.734087646736173 C 9.683956666805726 6.777300183781386 9.666318212321569 6.814184391430967 9.631041303356252 6.844740269684911 C 9.595764394390939 6.875296147938833 9.553181398133486 6.890574087458815 9.503292314583906 6.890574088244849 C 9.503292314583906 6.890574088244849 9.503292314627418 6.890574088244849 9.503292314627418 6.890574088244849  Z "/>
  <path class="st2" id="复合路径2" d="M 4.4675920116154195 2.8697721158457457 C 4.4675920116154195 2.8697721158457457 4.0854159502415595 1.624141359419601 4.0854159502415595 1.624141359419601 C 4.304084873273304 1.503407242400783 4.449559814413426 1.2919907318132433 4.449559814413426 1.0507202064825139 C 4.449559814413426 0.6750736633562757 4.098046096804978 0.3706022547171133 3.6643603413140293 0.3706022547171133 C 3.2307506710433396 0.3706022547171133 2.8792369534348876 0.6750736633562757 2.8792369534348876 1.0507202064825139 C 2.8792369534348876 1.4251804973673001 3.2286202848760164 1.7287951682765252 3.6604039098604266 1.7306404495410044 C 3.6604039098604266 1.7306404495410044 4.0437212495382155 2.9797640597892023 4.0437212495382155 2.9797640597892023 C 2.551766165429093 3.408791953780746 0.9329770191439346 4.3467220593548905 0.9329770191439346 6.398806631260997 C 0.9661501751779782 9.365096263912227 5.465525760566171 12.018149401918011 6.501349949207189 12.018149401918011 C 6.501349949207189 12.018149401918011 6.501349949207189 2.618220737755772 6.501349949207189 2.618220737755772 C 6.501349949207189 2.618220737755772 5.569153830562429 2.6141347578129954 4.46766809683568 2.8697721158457457 C 4.46766809683568 2.8697721158457457 4.4675920116154195 2.8697721158457457 4.4675920116154195 2.8697721158457457  Z M 5.25849787623444 8.938770388915106 C 4.6393163537457855 9.610979992404145 1.246143785740555 7.233203277317369 1.8229458405435168 5.5352149994844675 C 2.0513536717687475 4.734824251016369 2.8265098957936243 4.374533084126694 3.4596150135901427 4.462315749994086 C 5.768801448528787 4.8692661717141785 6.142379880013094 7.7158761337834365 5.25849787623444 8.9388362918174 C 5.25849787623444 8.9388362918174 5.25849787623444 8.938770388915106 5.25849787623444 8.938770388915106  Z M 3.8265740309116936 6.33824186404468 C 3.6291125747360153 6.338241863076645 3.460564965345566 6.3987088699459935 3.320931202740341 6.51964288465274 C 3.1812974401351135 6.640576899359482 3.1114700544460643 6.786561717770844 3.1114490456732002 6.957597339886847 C 3.1114354517063973 7.068262008944069 3.143367417019117 7.17151453229243 3.207244941611362 7.2673549099319334 C 3.271122466203603 7.36319528757144 3.3583853188497286 7.438779944260658 3.4690334995497345 7.494108879999613 C 3.5796816802497458 7.549437815738584 3.698887219110704 7.577096396249913 3.8266501161326163 7.577084621533628 C 3.9543948912283495 7.57707284974023 4.073578991224368 7.549399623239637 4.184202416120669 7.494064942031818 C 4.294825841016978 7.438730260824022 4.382067861922396 7.363147566584928 4.445928478836937 7.267316859314578 C 4.509789095751472 7.171486152044227 4.541712608189445 7.068246312234975 4.5416990161508455 6.957597339886847 C 4.5416990161508455 6.846948367747415 4.509762822437186 6.743711471289998 4.445890435009864 6.647886650514616 C 4.382018047582541 6.55206182973924 4.294766743756451 6.476487176316677 4.184136523531601 6.421162690246955 C 4.073506303306754 6.365838204177236 3.9543188057670062 6.338175961142378 3.826574030912353 6.338175961142378 C 3.826574030912353 6.338175961142378 3.8265740309116936 6.33824186404468 3.8265740309116936 6.33824186404468  Z M 3.612774561976683 6.909685929912688 C 3.5736485291238536 6.90968593209286 3.5382586995023018 6.899725947354459 3.506605073112017 6.879805975697505 C 3.4749514467217337 6.859886004040535 3.4530793287466635 6.8338104218242295 3.4409887191867976 6.801579229048523 C 3.4288981096269358 6.769348036272818 3.42889810961806 6.737116843494614 3.440988719160168 6.704885650713925 C 3.453079328702275 6.672654457933218 3.474951446662983 6.646578875707862 3.5066050730422935 6.626658904037798 C 3.538258699421603 6.606738932367783 3.573648529037672 6.596778947614756 3.6127745618904985 6.5967789497787495 C 3.6626531386466814 6.596778952558076 3.705227166385551 6.612053675848713 3.7404966451071147 6.642603119650691 C 3.7757661238286815 6.6731525634526925 3.7934008631835128 6.71002900353014 3.7934008631716143 6.75323243988304 C 3.793400863159714 6.796435876235949 3.77576612378457 6.8333123163061 3.740496645046179 6.863861760093513 C 3.7052271663077816 6.894411203880931 3.6626531385604952 6.909685927153995 3.6127745618043146 6.909685929912688 C 3.6127745618043146 6.909685929912688 3.612774561976683 6.909685929912688 3.612774561976683 6.909685929912688  Z "/>
  <g id="组2">
    <path class="st3" id="多边形4" d="M 9.382514228803183 7.977325350388718 C 9.382514228803183 7.977325350388718 9.672967470086704 10.201396900492155 9.672967470086704 10.201396900492155 C 9.672967470086704 10.201396900492155 6.894118420359222 12.387400677931861 6.894118420359222 12.387400677931861 C 6.894118420359222 12.387400677931861 9.382514228803183 7.977325350388718 9.382514228803183 7.977325350388718  Z "/>
    <path class="st4" id="多边形5" d="M 9.382514228803183 7.977325350388718 C 9.382514228803183 7.977325350388718 11.870910037247171 12.387400677931861 11.870910037247171 12.387400677931861 C 11.870910037247171 12.387400677931861 9.79730302232988 11.582191150549491 9.79730302232988 11.582191150549491 C 9.79730302232988 11.582191150549491 9.382514228803183 7.977325350388718 9.382514228803183 7.977325350388718  Z "/>
    <path class="st5" id="多边形6" d="M 8.53238252606736 11.094923660454267 C 8.53238252606736 11.094923660454267 11.870910037247171 12.387400677931861 11.870910037247171 12.387400677931861 C 11.870910037247171 12.387400677931861 6.894118420359222 12.387400677931861 6.894118420359222 12.387400677931861 C 6.894118420359222 12.387400677931861 8.53238252606736 11.094923660454267 8.53238252606736 11.094923660454267  Z "/>
  </g>
</svg>