<?xml version='1.0' encoding='utf-8'?><!-- Generator: DarwingMaster 1.1.8, SVG Export Plug-In . SVG Version: 6.00 Build 0)--><svg version="1.1" x="0" y="0" viewBox="0 0 13 13" xmlns="http://www.w3.org/2000/svg" xmlns:xlink="http://www.w3.org/1999/xlink">
  <style type="text/css">.st2{stroke:none;stroke-width:1;stroke-linecap:butt;stroke-linejoin:miter;fill:#e57200;fill-opacity:1;fill-rule:nonzero;}
.st3{stroke:none;stroke-width:1;stroke-linecap:butt;stroke-linejoin:miter;fill:#ff7f00;fill-opacity:1;fill-rule:nonzero;}
.st4{stroke:none;stroke-width:1;stroke-linecap:butt;stroke-linejoin:miter;fill:url(#0B857B78-D3AD-8B4B-F5FA-08DE34B53204);fill-rule:evenOdd;}
.st5{stroke:none;stroke-width:1;stroke-linecap:butt;stroke-linejoin:miter;fill:url(#DC83DFC6-D658-39C6-4CDB-5D4BB1372E0C);fill-rule:evenOdd;}
.st6{stroke:none;stroke-width:1;stroke-linecap:butt;stroke-linejoin:miter;fill:url(#AE0CF417-1F3E-CE6D-3046-FC736D4F254F);fill-rule:evenOdd;}</style>
  <defs>
    <linearGradient x1="8.761882061833834" y1="6.260033999623901" x2="5.205470810176043" y2="12.047206935874682" gradientUnits="userSpaceOnUse" id="0B857B78-D3AD-8B4B-F5FA-08DE34B53204">
      <stop offset="0%" style="stop-color:#7777e9;stop-opacity:1;"/>
      <stop offset="100%" style="stop-color:#01009a;stop-opacity:1;"/>
    </linearGradient>
    <linearGradient x1="8.746170208254833" y1="6.114039936535372" x2="12.286869606333632" y2="12.047206935874682" gradientUnits="userSpaceOnUse" id="DC83DFC6-D658-39C6-4CDB-5D4BB1372E0C">
      <stop offset="0%" style="stop-color:#b83535;stop-opacity:1;"/>
      <stop offset="100%" style="stop-color:#fd5b5a;stop-opacity:1;"/>
    </linearGradient>
    <linearGradient x1="12.286869606333632" y1="12.047206935874682" x2="6.361650791624745" y2="11.329384549528186" gradientUnits="userSpaceOnUse" id="AE0CF417-1F3E-CE6D-3046-FC736D4F254F">
      <stop offset="0%" style="stop-color:#01b202;stop-opacity:1;"/>
      <stop offset="100%" style="stop-color:#0fe90f;stop-opacity:1;"/>
    </linearGradient>
  </defs>
  <path class="st2" id="复合路径1" d="M 8.994510446738303 2.9589387426614993 C 8.994510446738303 2.9589387426614993 9.38596890498408 1.7372966426735914 9.38596890498408 1.7372966426735914 C 9.78648150444098 1.706322278591253 10.100561293680745 1.4152950620218734 10.100561293680745 1.0602761273164267 C 10.100561293680745 0.6846295841901874 9.749047576072284 0.38015817555102593 9.315361820581336 0.38015817555102593 C 8.881676065090398 0.38015817555102593 8.530162347481934 0.6846295841901874 8.530162347481934 1.0602761273164267 C 8.530162347481934 1.3077415254636233 8.68332189586849 1.5235735305054532 8.911349300992411 1.6426600749667015 C 8.911349300992411 1.6426600749667015 8.527118938671485 2.8417633823670343 8.527118938671485 2.8417633823670343 C 7.428676613755187 2.5998997309155785 6.501349949207189 2.618352543560376 6.501349949207189 2.618352543560376 C 6.501349949207189 2.618352543560376 6.32954952185656 2.6849144748862557 6.32954952185656 2.6849144748862557 C 6.32954952185656 2.6849144748862557 6.32954952185656 11.968788128093168 6.32954952185656 11.968788128093168 C 6.32954952185656 11.968788128093168 6.501349949207189 12.018413013527214 6.501349949207189 12.018413013527214 C 7.53717413784819 12.018413013527214 12.069038112288077 9.307628933104146 12.080146554446264 6.398872534163301 C 12.080146554446264 4.314759151738011 10.480606968887283 3.378872036135257 8.994510446738298 2.9589387426614993 C 8.994510446738298 2.9589387426614993 8.994510446738303 2.9589387426614993 8.994510446738303 2.9589387426614993  Z M 7.9035244734076535 8.9388362918174 C 7.0196424696289945 7.715876133783439 7.393296986333569 4.86926617171418 9.702407336051946 4.462381652896392 C 10.335436368628203 4.374533084126695 11.11066867787334 4.73482425101637 11.33900042387831 5.535214999484468 C 11.915878563901538 7.233269180219675 8.522705995896303 9.610979992404143 7.9035244734076535 8.9388362918174  Z M 9.289492845692408 6.31906411947455 C 9.161748070837762 6.31906411947455 9.042560573298012 6.346726362509413 8.931930353073156 6.40205084857913 C 8.8213001328483 6.457375334648844 8.734048829022226 6.53294998807141 8.6701764415949 6.628774808846785 C 8.606304054167573 6.724599629622174 8.574367860453915 6.8278365260796 8.574367860453915 6.938485498219018 C 8.574367860453915 7.049142321430271 8.606308281478967 7.152385560838454 8.670189123529072 7.248215216443599 C 8.734069965579156 7.344044872048725 8.821331685780137 7.419620506173524 8.931974284131977 7.474942118817973 C 9.042616882483832 7.530263731462414 9.161815099426567 7.557918650844127 9.28956893496019 7.557906876963125 C 9.417313710055916 7.557895105169742 9.53649781005194 7.530221878669124 9.64712123494824 7.474887197461326 C 9.757744659844546 7.419552516253526 9.844986680749969 7.34396982201443 9.908847297664504 7.248139114744076 C 9.972707914579043 7.15230840747372 10.004631427017015 7.049068567664483 10.004617834978424 6.938419595316359 C 10.0045968262058 6.767383973200883 9.934769440516966 6.621399154789695 9.795135677911922 6.500465140082797 C 9.655501915306884 6.379531125375897 9.486954305916512 6.3190641185063585 9.289492849740844 6.319064119474179 C 9.289492849740844 6.319064119474179 9.289492845692408 6.31906411947455 9.289492845692408 6.31906411947455  Z M 9.503292314627418 6.890574088244849 C 9.464158042466204 6.890574088865515 9.428760760638498 6.880612005556192 9.397100469144316 6.860687838316894 C 9.365440177650132 6.840763671077578 9.343563454253845 6.814682597337705 9.331470298955436 6.782444617097278 C 9.319377143657036 6.7502066368568725 9.319377143654796 6.717968656615802 9.331470298948709 6.685730676374119 C 9.343563454242627 6.653492696132423 9.365440177635302 6.627411622390278 9.39710046912671 6.607487455147671 C 9.428760760618127 6.587563287905057 9.464158042444438 6.57760120459206 9.503292314605655 6.577601205208628 C 9.553181398155242 6.57760120599986 9.595764394410567 6.592879145524292 9.631041303371637 6.623435023781907 C 9.6663182123327 6.653990902039532 9.683956666811737 6.690875109690939 9.683956666808731 6.734087646736173 C 9.683956666805726 6.777300183781386 9.666318212321569 6.814184391430967 9.631041303356252 6.844740269684911 C 9.59576439439094 6.875296147938833 9.553181398133486 6.890574087458815 9.503292314583906 6.890574088244849 C 9.503292314583906 6.890574088244849 9.503292314627418 6.890574088244849 9.503292314627418 6.890574088244849  Z "/>
  <path class="st3" id="复合路径2" d="M 4.4675920116154195 2.8697721158457457 C 4.4675920116154195 2.8697721158457457 4.0854159502415595 1.6241413594196015 4.0854159502415595 1.6241413594196015 C 4.304084873273304 1.5034072424007834 4.449559814413426 1.291990731813243 4.449559814413426 1.0507202064825139 C 4.449559814413426 0.6750736633562755 4.098046096804978 0.37060225471711306 3.6643603413140298 0.37060225471711306 C 3.2307506710433396 0.37060225471711306 2.879236953434887 0.6750736633562755 2.879236953434887 1.0507202064825139 C 2.879236953434887 1.4251804973672997 3.228620284876016 1.7287951682765255 3.6604039098604257 1.7306404495410046 C 3.6604039098604257 1.7306404495410046 4.0437212495382155 2.9797640597892023 4.0437212495382155 2.9797640597892023 C 2.551766165429093 3.408791953780746 0.9329770191439346 4.346722059354891 0.9329770191439346 6.398806631260998 C 0.9661501751779782 9.365096263912228 5.465525760566171 12.018149401918015 6.501349949207189 12.018149401918015 C 6.501349949207189 12.018149401918015 6.501349949207189 2.618220737755772 6.501349949207189 2.618220737755772 C 6.501349949207189 2.618220737755772 5.5691538305624295 2.614134757812995 4.467668096835681 2.8697721158457457 C 4.467668096835681 2.8697721158457457 4.4675920116154195 2.8697721158457457 4.4675920116154195 2.8697721158457457  Z M 5.25849787623444 8.938770388915106 C 4.6393163537457855 9.610979992404143 1.2461437857405546 7.23320327731737 1.8229458405435164 5.535214999484468 C 2.051353671768747 4.73482425101637 2.8265098957936243 4.374533084126693 3.4596150135901427 4.462315749994085 C 5.768801448528787 4.869266171714178 6.142379880013094 7.7158761337834365 5.25849787623444 8.9388362918174 C 5.25849787623444 8.9388362918174 5.25849787623444 8.938770388915106 5.25849787623444 8.938770388915106  Z M 3.8265740309116936 6.338241864044681 C 3.6291125747360153 6.338241863076646 3.460564965345566 6.3987088699459935 3.320931202740341 6.51964288465274 C 3.1812974401351135 6.640576899359482 3.1114700544460643 6.786561717770844 3.1114490456732 6.957597339886847 C 3.1114354517063973 7.068262008944069 3.1433674170191175 7.171514532292431 3.2072449416113624 7.2673549099319334 C 3.2711224662036034 7.363195287571441 3.358385318849729 7.438779944260658 3.4690334995497345 7.494108879999613 C 3.5796816802497458 7.549437815738584 3.6988872191107034 7.577096396249912 3.8266501161326154 7.577084621533627 C 3.954394891228349 7.5770728497402295 4.073578991224368 7.549399623239637 4.184202416120669 7.494064942031818 C 4.294825841016978 7.438730260824022 4.382067861922396 7.363147566584928 4.445928478836937 7.267316859314578 C 4.509789095751472 7.171486152044227 4.541712608189445 7.068246312234975 4.5416990161508455 6.957597339886847 C 4.5416990161508455 6.846948367747415 4.509762822437187 6.743711471289998 4.445890435009865 6.647886650514616 C 4.382018047582542 6.55206182973924 4.294766743756451 6.476487176316677 4.184136523531601 6.421162690246955 C 4.073506303306754 6.365838204177236 3.954318805767006 6.338175961142378 3.8265740309123526 6.338175961142378 C 3.8265740309123526 6.338175961142378 3.8265740309116936 6.338241864044681 3.8265740309116936 6.338241864044681  Z M 3.612774561976683 6.909685929912689 C 3.5736485291238536 6.909685932092861 3.5382586995023013 6.89972594735446 3.5066050731120164 6.879805975697506 C 3.4749514467217333 6.859886004040536 3.453079328746664 6.8338104218242295 3.440988719186798 6.801579229048523 C 3.4288981096269366 6.769348036272818 3.42889810961806 6.737116843494613 3.440988719160168 6.7048856507139245 C 3.453079328702275 6.672654457933217 3.474951446662983 6.646578875707862 3.5066050730422935 6.626658904037798 C 3.538258699421603 6.606738932367783 3.573648529037672 6.596778947614757 3.6127745618904985 6.59677894977875 C 3.6626531386466814 6.5967789525580764 3.7052271663855514 6.612053675848714 3.7404966451071147 6.642603119650692 C 3.775766123828682 6.673152563452693 3.7934008631835128 6.710029003530141 3.7934008631716143 6.753232439883041 C 3.793400863159714 6.79643587623595 3.7757661237845697 6.833312316306099 3.7404966450461785 6.863861760093512 C 3.705227166307781 6.89441120388093 3.6626531385604957 6.909685927153996 3.612774561804315 6.909685929912689 C 3.612774561804315 6.909685929912689 3.612774561976683 6.909685929912689 3.612774561976683 6.909685929912689  Z "/>
  <g id="组2">
    <path class="st4" id="多边形4" d="M 8.746170208254833 5.937882615110756 C 8.746170208254833 5.937882615110756 9.158613840841852 9.021254799944153 9.158613840841852 9.021254799944153 C 9.158613840841852 9.021254799944153 5.212647903550549 12.051851204535923 5.212647903550549 12.051851204535923 C 5.212647903550549 12.051851204535923 8.746170208254833 5.937882615110756 8.746170208254833 5.937882615110756  Z "/>
    <path class="st5" id="多边形5" d="M 8.746170208254833 5.937882615110756 C 8.746170208254833 5.937882615110756 12.279692512959155 12.051851204535923 12.279692512959155 12.051851204535923 C 12.279692512959155 12.051851204535923 9.33517033785417 10.935537900866281 9.33517033785417 10.935537900866281 C 9.33517033785417 10.935537900866281 8.746170208254833 5.937882615110756 8.746170208254833 5.937882615110756  Z "/>
    <path class="st6" id="多边形6" d="M 7.5389831026666325 10.260007913774217 C 7.5389831026666325 10.260007913774217 12.279692512959155 12.051851204535923 12.279692512959155 12.051851204535923 C 12.279692512959155 12.051851204535923 5.212647903550549 12.051851204535923 5.212647903550549 12.051851204535923 C 5.212647903550549 12.051851204535923 7.5389831026666325 10.260007913774217 7.5389831026666325 10.260007913774217  Z "/>
  </g>
</svg>