<?xml version="1.0" encoding="UTF-8"?>
<svg xmlns="http://www.w3.org/2000/svg" width="13" height="13" viewBox="0 0 11.22 11.24">
    <defs>
        <style>
            .cls-1 {
            fill: #e57200;
            }

            .cls-2 {
            fill: #ff7f00;
            }
        </style>
    </defs>
    <g focusable="false">
        <path class="cls-1"
              d="M8.05,2.5l.4-1.18c.41-.03,.73-.31,.73-.65,0-.36-.36-.66-.81-.66s-.81,.29-.81,.66c0,.24,.16,.45,.39,.56l-.39,1.16c-1.13-.23-2.08-.22-2.08-.22l-.18,.06V11.2l.18,.05c1.06,0,5.72-2.62,5.73-5.43,0-2.01-1.64-2.92-3.17-3.32Zm-1.12,5.77c-.91-1.18-.52-3.93,1.85-4.32,.65-.08,1.45,.26,1.68,1.04,.59,1.64-2.89,3.93-3.53,3.29Zm1.42-2.53c-.41,0-.73,.27-.73,.6h0c0,.33,.33,.6,.73,.6h0c.41,0,.73-.27,.73-.6,0-.33-.33-.6-.73-.6Zm.22,.55c-.1,0-.19-.07-.19-.15s.08-.15,.19-.15,.19,.07,.19,.15-.08,.15-.19,.15h0Z"/>
        <path class="cls-2"
              d="M3.5,2.41l-.38-1.2c.22-.12,.36-.32,.36-.55,0-.36-.35-.66-.78-.66s-.78,.29-.78,.66,.35,.65,.77,.66l.38,1.21c-1.48,.41-3.08,1.32-3.08,3.3,.03,2.86,4.49,5.42,5.52,5.42V2.17s-.92,0-2.02,.24h0Zm.78,5.86c-.61,.65-3.98-1.65-3.4-3.29,.23-.77,.99-1.12,1.62-1.04,2.29,.39,2.66,3.14,1.78,4.32h0Zm-1.42-2.51c-.39,0-.71,.27-.71,.6,0,.33,.32,.6,.71,.6h0c.39,0,.71-.27,.71-.6,0-.33-.32-.6-.71-.6h0Zm-.21,.55c-.1,0-.18-.07-.18-.15s.08-.15,.18-.15,.18,.07,.18,.15-.08,.15-.18,.15Z"/>
    </g>
</svg>