<?xml version='1.0' encoding='utf-8'?><!-- Generator: DarwingMaster 1.1.6, SVG Export Plug-In . SVG Version: 6.00 Build 0)--><svg version="1.1" x="0" y="0" viewBox="0 0 16 16" xmlns="http://www.w3.org/2000/svg" xmlns:xlink="http://www.w3.org/1999/xlink">
  <style type="text/css">.st1{stroke:none;stroke-width:1;stroke-linecap:butt;stroke-linejoin:miter;fill:#e57200;fill-opacity:1;fill-rule:nonzero;}
.st2{stroke:none;stroke-width:1;stroke-linecap:butt;stroke-linejoin:miter;fill:#e57200;fill-opacity:1;fill-rule:nonzero;}
.st3{stroke:none;stroke-width:1;stroke-linecap:butt;stroke-linejoin:miter;fill:#389fd6;fill-opacity:1;fill-rule:nonzero;}</style>
  <defs/>
  <g id="组1">
    <path class="st1" id="复合路径1" d="M 8.984843185058596 2.8330682908968305 C 8.984843185058596 2.8330682908968305 9.414171674148184 1.57453591793522 9.414171674148184 1.57453591793522 C 9.854233375464974 1.5425393321819572 10.197696166736625 1.2439045318181887 10.197696166736625 0.8812765599478948 C 10.197696166736625 0.4973175309087602 9.811300526556016 0.1773516733761533 9.328305976330258 0.1773516733761533 C 8.84531142610445 0.1773516733761533 8.458915785923876 0.4866520023243424 8.458915785923876 0.8812765599478948 C 8.458915785923876 1.1372492459739845 8.630647181559697 1.3612253462468165 8.87751106278621 1.4785461606754353 C 8.87751106278621 1.4785461606754353 8.458915785923876 2.7157474764682092 8.458915785923876 2.7157474764682092 C 7.2460628042458035 2.470440319026536 6.226407642658089 2.4811058476109564 6.226407642658089 2.4811058476109564 C 6.226407642658089 2.4811058476109564 6.033209822567787 2.5450990191174805 6.033209822567787 2.5450990191174805 C 6.033209822567787 2.5450990191174805 6.033209822567787 12.112078159342612 6.033209822567787 12.112078159342612 C 6.033209822567787 12.112078159342612 6.226407642658089 12.165405802264685 6.226407642658089 12.165405802264685 C 7.36412813874544 12.165405802264685 12.365805036638973 9.37103731314656 12.376538248866224 6.374023780924402 C 12.376538248866224 4.230252535455908 10.616291443598934 3.2596894342736475 8.974109972831327 2.8330682908968305 C 8.974109972831327 2.8330682908968305 8.984843185058596 2.8330682908968305 8.984843185058596 2.8330682908968305  Z M 7.782723415607776 8.98707828410741 C 6.8060011029290255 7.728545911145803 7.224596379791347 4.79552555043019 9.768367677647062 4.379569935637779 C 10.466026472417605 4.294245706962416 11.324683450596742 4.656873678832717 11.571547331823249 5.488784908417511 C 12.204806853230378 7.237931596262455 8.469648998151108 9.680337642094711 7.782723415607776 8.99774381269183 C 7.782723415607776 8.99774381269183 7.782723415607776 8.98707828410741 7.782723415607776 8.98707828410741  Z M 9.306839551875774 6.288699552249038 C 8.86677785055896 6.288699552249038 8.523315059287308 6.576668824028398 8.523315059287308 6.928631267314264 C 8.523315059287308 6.928631267314264 8.523315059287308 6.928631267314264 8.523315059287308 6.928631267314264 C 8.523315059287308 7.280593710600135 8.87751106278621 7.5685629823794836 9.306839551875774 7.5685629823794836 C 9.306839551875774 7.5685629823794836 9.306839551875774 7.5685629823794836 9.306839551875774 7.5685629823794836 C 9.746901253192595 7.5685629823794836 10.090364044464232 7.280593710600135 10.090364044464232 6.928631267314264 C 10.090364044464232 6.576668824028398 9.736168040965323 6.288699552249038 9.306839551875774 6.288699552249038  Z M 9.54297022087504 6.875303624392168 C 9.43563809860264 6.875303624392168 9.339039188557495 6.80064492430122 9.339039188557495 6.715320695625861 C 9.339039188557495 6.6299964669504945 9.424904886375417 6.555337766859556 9.54297022087504 6.555337766859556 C 9.66103555537468 6.555337766859556 9.746901253192584 6.6299964669504945 9.746901253192584 6.715320695625861 C 9.746901253192584 6.80064492430122 9.66103555537468 6.875303624392168 9.54297022087504 6.875303624392168 C 9.54297022087504 6.875303624392168 9.54297022087504 6.875303624392168 9.54297022087504 6.875303624392168  Z "/>
    <path class="st2" id="复合路径2" d="M 4.101231621664707 2.737078533637045 C 4.101231621664707 2.737078533637045 3.6933695570296194 1.4572151035065943 3.6933695570296194 1.4572151035065943 C 3.9295002260288765 1.3292287604935478 4.0797651972102305 1.1159181888051428 4.0797651972102305 0.8706110313634747 C 4.0797651972102305 0.4866520023243425 3.704102769256858 0.1666861447917285 3.2425746434855616 0.1666861447917285 C 2.7810465177142767 0.1666861447917285 2.405384089760901 0.4759864737399223 2.405384089760901 0.8706110313634747 C 2.405384089760901 1.2652355889870304 2.7810465177142767 1.5638703893507986 3.23184143125832 1.57453591793522 C 3.23184143125832 1.57453591793522 3.6397034958934182 2.86506487665009 3.6397034958934182 2.86506487665009 C 2.0511880862620027 3.3023515486113286 0.33387412990371246 4.272914649793579 0.33387412990371246 6.38468930950883 C 0.3660737665854328 9.43503048465306 5.153086419934167 12.165405802264685 6.258607279339807 12.165405802264685 C 6.258607279339807 12.165405802264685 6.258607279339807 2.4811058476109564 6.258607279339807 2.4811058476109564 C 6.258607279339807 2.4811058476109564 5.27115175443379 2.4811058476109564 4.090498409437465 2.737078533637045 C 4.090498409437465 2.737078533637045 4.090498409437465 2.737078533637045 4.090498409437465 2.737078533637045 C 4.090498409437465 2.737078533637045 4.101231621664707 2.737078533637045 4.101231621664707 2.737078533637045  Z M 4.938422175389377 8.98707828410741 C 4.283696229527777 9.680337642094711 0.6666037089481309 7.227266067678039 1.2891300181280139 5.4781193798331005 C 1.5359938993545206 4.656873678832715 2.351718028624702 4.2835801783780045 3.0279103989407723 4.368904407053366 C 5.48581599897858 4.784860021845755 5.882944851386437 7.717880382561369 4.938422175389377 8.976412755522963 C 4.938422175389377 8.976412755522963 4.938422175389377 8.976412755522963 4.938422175389377 8.976412755522963 C 4.938422175389377 8.976412755522963 4.938422175389377 8.98707828410741 4.938422175389377 8.98707828410741  Z M 3.414306039121394 6.310030609417877 C 2.9957107622590553 6.310030609417877 2.6522479709874016 6.597999881197232 2.6522479709874016 6.9499623244831055 C 2.6522479709874016 7.301924767768986 2.9957107622590553 7.589894039548334 3.414306039121394 7.589894039548334 C 3.414306039121394 7.589894039548334 3.414306039121394 7.589894039548334 3.414306039121394 7.589894039548334 C 3.832901315983726 7.589894039548334 4.176364107255376 7.301924767768986 4.176364107255376 6.9499623244831055 C 4.176364107255376 6.597999881197232 3.832901315983726 6.310030609417877 3.414306039121394 6.310030609417877 C 3.414306039121394 6.310030609417877 3.414306039121394 6.310030609417877 3.414306039121394 6.310030609417877  Z M 3.1889085823493706 6.896634681561012 C 3.08157646007697 6.896634681561012 2.9957107622590553 6.821975981470059 2.9957107622590553 6.736651752794703 C 2.9957107622590553 6.651327524119334 3.08157646007697 6.5766688240283955 3.1889085823493706 6.5766688240283955 C 3.2962407046217623 6.5766688240283955 3.3821064024396734 6.651327524119334 3.3821064024396734 6.736651752794703 C 3.3821064024396734 6.821975981470059 3.2962407046217623 6.896634681561012 3.1889085823493706 6.896634681561012  Z "/>
  </g>
  <path class="st3" id="复合路径4" d="M 15.10632196568971 12.41958561347285 C 15.10632196568971 12.41958561347285 15.106197801896249 15.274102577658155 15.106197801896249 15.274102577658155 C 15.106197801896249 15.274102577658155 14.101879077148824 14.341970584172422 14.101879077148824 14.341970584172422 C 13.389906031009945 15.053700249593394 12.363392420486102 15.48157122306765 11.246095779599033 15.43534409080732 C 9.442990233203988 15.360742238870902 8.013257166034402 14.076636221146048 7.803611568194534 12.456542160132777 C 7.803611568194534 12.456542160132777 8.93458962755186 12.540750359679857 8.93458962755186 12.540750359679857 C 9.173932551935275 13.569257936504021 10.125181715291975 14.357399684700733 11.304666444705928 14.406199792559631 C 12.097658984532549 14.439009137614942 12.825322458411632 14.130653118684558 13.324397504433419 13.619934154016251 C 13.324397504433419 13.619934154016251 12.055779851495108 12.442974499219176 12.055779851495108 12.442974499219176 C 12.055779851495108 12.442974499219176 15.10632196568971 12.41958561347285 15.10632196568971 12.41958561347285  Z M 11.629560645765617 8.590811380311356 C 13.408515013171618 8.664413999184248 14.824031964488187 9.91533702282007 15.062966128728819 11.504696541259452 C 15.062966128728819 11.504696541259452 13.92838602171602 11.420708954239096 13.92838602171602 11.420708954239096 C 13.666706858150627 10.421581507026067 12.729617428836276 9.662891679408634 11.5730910354886 9.615041451822327 C 10.780236526003934 9.5822378176469 10.052688342346 9.890480813568114 9.553620590880803 10.401040472877845 C 9.553620590880803 10.401040472877845 10.824581686265153 11.58100061752329 10.824581686265153 11.58100061752329 C 10.824581686265153 11.58100061752329 7.774039596441406 11.604389504277933 7.774039596441406 11.604389504277933 C 7.774039596441406 11.604389504277933 7.774163754781263 8.74987252843295 7.774163754781263 8.74987252843295 C 7.774163754781263 8.74987252843295 8.77706899200435 9.680898588843323 8.77706899200435 9.680898588843323 C 9.488912354180785 8.971138466414184 10.513984683627642 8.544655439569208 11.629560645765617 8.590811380311356  Z "/>
</svg>